<svg width="180" height="180" viewBox="0 0 180 180" xmlns="http://www.w3.org/2000/svg">
  <rect width="180" height="180" rx="38" fill="#0f1a14"/>
  <path d="M66 38 C60 42 56 52 56 64 L56 118 C56 126 62 132 70 134 L90 138 L110 134 C118 132 124 126 124 118 L124 64 C124 52 120 42 114 38 Z" fill="#1a2e1f" stroke="#2a4a2f" stroke-width="1"/>
  <path d="M66 38 C62 50 60 68 62 90 L68 90 C68 68 70 50 74 38 Z" fill="#243824" opacity="0.8"/>
  <path d="M114 38 C118 50 120 68 118 90 L112 90 C112 68 110 50 106 38 Z" fill="#243824" opacity="0.8"/>
  <rect x="70" y="50" width="17" height="18" rx="4" fill="#30c46a" opacity="0.9"/>
  <rect x="93" y="50" width="17" height="18" rx="4" fill="#30c46a" opacity="0.9"/>
  <rect x="70" y="74" width="17" height="18" rx="4" fill="#30c46a" opacity="0.75"/>
  <rect x="93" y="74" width="17" height="18" rx="4" fill="#30c46a" opacity="0.75"/>
  <rect x="70" y="98" width="17" height="18" rx="4" fill="#30c46a" opacity="0.55"/>
  <rect x="93" y="98" width="17" height="18" rx="4" fill="#30c46a" opacity="0.55"/>
  <rect x="88" y="48" width="4" height="72" rx="2" fill="#0f1a14" opacity="0.7"/>
  <rect x="66" y="70" width="48" height="3" rx="1.5" fill="#0f1a14" opacity="0.6"/>
  <rect x="66" y="94" width="48" height="3" rx="1.5" fill="#0f1a14" opacity="0.6"/>
  <text x="90" y="152" font-family="-apple-system,BlinkMacSystemFont,'SF Pro Display',sans-serif" font-size="18" font-weight="700" fill="#30c46a" text-anchor="middle" letter-spacing="5">ABS</text>
  <circle cx="35" cy="35" r="3" fill="#30c46a" opacity="0.3"/>
  <circle cx="145" cy="35" r="3" fill="#30c46a" opacity="0.3"/>
</svg>
