<svg width="180" height="180" viewBox="0 0 180 180" xmlns="http://www.w3.org/2000/svg">
  <rect width="180" height="180" rx="38" fill="#1c0d0c"/>
  <rect x="12" y="12" width="4" height="28" rx="2" fill="#e8453c" opacity="0.35"/>
  <rect x="20" y="20" width="4" height="20" rx="2" fill="#e8453c" opacity="0.2"/>
  <rect x="30" y="85" width="120" height="10" rx="5" fill="#e8453c"/>
  <rect x="28" y="78" width="10" height="24" rx="4" fill="#c0382f"/>
  <rect x="142" y="78" width="10" height="24" rx="4" fill="#c0382f"/>
  <rect x="12" y="68" width="18" height="44" rx="6" fill="#2e2e2e"/>
  <rect x="14" y="70" width="14" height="40" rx="5" fill="#3a3a3a"/>
  <rect x="16" y="78" width="2" height="24" rx="1" fill="#555"/>
  <rect x="20" y="78" width="2" height="24" rx="1" fill="#555"/>
  <rect x="24" y="78" width="2" height="24" rx="1" fill="#555"/>
  <rect x="150" y="68" width="18" height="44" rx="6" fill="#2e2e2e"/>
  <rect x="152" y="70" width="14" height="40" rx="5" fill="#3a3a3a"/>
  <rect x="154" y="78" width="2" height="24" rx="1" fill="#555"/>
  <rect x="158" y="78" width="2" height="24" rx="1" fill="#555"/>
  <rect x="162" y="78" width="2" height="24" rx="1" fill="#555"/>
  <rect x="55" y="104" width="70" height="3" rx="1.5" fill="#e8453c" opacity="0.7"/>
  <rect x="62" y="110" width="56" height="2" rx="1" fill="#e8453c" opacity="0.4"/>
  <rect x="70" y="115" width="40" height="2" rx="1" fill="#e8453c" opacity="0.25"/>
  <text x="90" y="150" font-family="-apple-system,BlinkMacSystemFont,'SF Pro Display',sans-serif" font-size="18" font-weight="700" fill="#e8453c" text-anchor="middle" letter-spacing="4">MAX DEF</text>
  <circle cx="90" cy="62" r="4" fill="#e8453c" opacity="0.5"/>
</svg>
